# xmcd CD database file
#
# Track frame offsets:
#	150
#	12150
#	23260
#	34455
#	46180
#	84613
#	93828
#	107788
#	121653
#	160033
#	170328
#	182296
#	202534
#	212667
#	241222
#
# Disc length: 3378 seconds
#
# Revision: 0
# Processed by: cddbd v1.4PL0 Copyright (c) Steve Scherf et al.
# Submitted via: CDex 1.50
#
DISCID=a10d300f
DTITLE=Creedence - Anthollogy I
DYEAR=1900
DGENRE=Country
TTITLE0=Down on the corner
TTITLE1=Green river
TTITLE2=Lookin' out of back door
TTITLE3=Have you ever seen the rain
TTITLE4=Graveyad train
TTITLE5=Doby dooby
TTITLE6=Lodi
TTITLE7=Proud Mary
TTITLE8=Suzy Q
TTITLE9=Bad moon rising
TTITLE10=Commotion
TTITLE11=I put a spell on you
TTITLE12=Fortunate son
TTITLE13=Pagan Baby
TTITLE14=Molina
EXTD=
EXTT0=
EXTT1=
EXTT2=
EXTT3=
EXTT4=
EXTT5=
EXTT6=
EXTT7=
EXTT8=
EXTT9=
EXTT10=
EXTT11=
EXTT12=
EXTT13=
EXTT14=
PLAYORDER=
